<svg xmlns="http://www.w3.org/2000/svg" width="32" height="32" viewBox="0 0 24 24"><!-- Icon from Majesticons by Gerrit Halfmann - https://github.com/halfmage/majesticons/blob/main/LICENSE --><g fill="none"><path fill-rule="evenodd" clip-rule="evenodd" d="M9.378 4.661c1.143-2.057 4.101-2.057 5.245 0l6.6 11.882c1.111 2-.335 4.457-2.622 4.457H5.399c-2.287 0-3.733-2.457-2.622-4.457l6.6-11.882zM12 8a1 1 0 0 1 1 1v4a1 1 0 1 1-2 0V9a1 1 0 0 1 1-1zm1 9a1 1 0 1 1-2 0a1 1 0 0 1 2 0z" fill="currentColor"/></g></svg>